<svg width="45" height="45" viewBox="0 0 45 45" fill="none" xmlns="http://www.w3.org/2000/svg">
<path d="M37.7988 26.4362H37.7667C38.4525 25.537 39.0548 24.33 39.031 22.8783C38.9989 20.9162 37.8259 18.9966 35.5449 17.1727C35.8301 16.3163 35.8907 15.472 35.7233 14.6448C35.0601 11.3678 31.504 10.059 28.2408 9.33141C28.3567 8.94614 28.4198 8.53812 28.4198 8.11553C28.4198 6.51634 27.5271 5.12182 26.214 4.40358C27.5204 1.75111 29.2623 1.45788 29.9629 1.45788C30.8556 1.45788 31.4169 1.64896 31.7416 1.82128C31.9942 1.95531 32.3004 1.93373 32.528 1.76073C32.9519 1.43854 32.8972 0.787255 32.4272 0.53718C31.9043 0.258822 31.1097 0 29.9629 0C28.5654 0 27.2547 0.643022 26.1724 1.85948C25.8081 2.26904 25.2815 2.9594 24.8216 3.93482C24.6161 3.90401 24.4059 3.88768 24.1919 3.88768C22.6065 3.88768 21.2227 4.76542 20.4992 6.06012C20.2344 5.76747 19.9418 5.38463 19.7357 4.95135C19.649 4.76911 19.4906 4.63101 19.2982 4.56987C19.1059 4.50883 18.8967 4.53012 18.7208 4.62887C16.5416 5.85135 14.9504 7.47999 13.9915 9.46961C13.1713 11.1712 13.0197 12.7388 13.0169 13.6503C12.9553 13.6742 12.8943 13.6981 12.8372 13.7226C10.9504 14.5313 9.86245 16.0707 9.69061 18.1744C9.62199 19.0153 9.71695 19.7827 9.81832 20.3092C8.3168 20.8473 7.27257 21.8759 6.89605 23.2238C6.59884 24.2879 6.75221 25.4423 7.27889 26.4363H6.69729C6.4756 26.4363 6.26595 26.5372 6.12755 26.7105C5.98925 26.8838 5.93735 27.1105 5.98643 27.3268L9.59896 43.2222C9.83689 44.2689 10.7527 45 11.8262 45H32.6697C33.7431 45 34.659 44.2689 34.897 43.2222L38.5095 27.3268C38.5586 27.1105 38.5067 26.8838 38.3684 26.7105C38.2303 26.5371 38.0206 26.4362 37.7988 26.4362ZM24.1919 5.34556C25.7193 5.34556 26.9619 6.58816 26.9619 8.11553C26.9619 9.64291 25.7193 10.8855 24.1919 10.8855C22.6646 10.8855 21.422 9.64291 21.422 8.11553C21.422 6.58816 22.6647 5.34556 24.1919 5.34556ZM11.8264 43.542C11.4381 43.542 11.1069 43.2776 11.0208 42.899L7.61061 27.8941H9.96984L12.5759 43.183C12.597 43.3074 12.6269 43.4269 12.6631 43.542H11.8264ZM14.4318 43.542C14.2995 43.542 14.0803 43.3321 14.0131 42.9381L11.4488 27.8941H13.822L15.5548 43.1429C15.5706 43.2818 15.5938 43.4152 15.6236 43.542H14.4318ZM17.1691 43.542C17.1183 43.4595 17.0376 43.2795 17.0034 42.9782L15.2893 27.8941H17.6717L18.5359 43.1018C18.5447 43.2581 18.5583 43.4048 18.5764 43.542H17.1691ZM21.5192 43.542H20.0537C20.0287 43.4171 20.0041 43.2447 19.9913 43.0192L19.1319 27.8941H21.4683C21.4692 27.8941 21.4701 27.8943 21.471 27.8943C21.4722 27.8943 21.4734 27.8941 21.4747 27.8941H21.5192V43.542ZM24.5049 43.0192C24.4921 43.2447 24.4675 43.4172 24.4425 43.542H22.977V27.8941H25.3643L24.5049 43.0192ZM27.3273 43.542H25.9198C25.938 43.4049 25.9515 43.2582 25.9604 43.1018L26.8245 27.8941H29.2071L27.4929 42.9782C27.4587 43.2795 27.3781 43.4595 27.3273 43.542ZM30.0645 43.542H28.8726C28.9026 43.4152 28.9257 43.2818 28.9415 43.1429L30.6743 27.8941H33.0474L30.4831 42.9381C30.416 43.3321 30.1969 43.542 30.0645 43.542ZM33.4754 42.899C33.3894 43.2777 33.0581 43.542 32.6698 43.542H31.833C31.8692 43.4269 31.8991 43.3074 31.9203 43.183L34.5264 27.8941H36.0713C36.0719 27.8941 36.0725 27.8942 36.0732 27.8942C36.074 27.8942 36.0746 27.8941 36.0754 27.8941H36.8857L33.4754 42.899ZM35.7965 26.4362H24.6194C26.2584 25.5799 28.3813 24.3798 30.3818 22.9764C30.7114 22.7452 30.7911 22.2906 30.5599 21.961C30.3287 21.6314 29.8741 21.5517 29.5445 21.783C26.0722 24.2191 22.0964 26.0788 21.3134 26.4362H9.05216C8.32779 25.6541 8.03271 24.5744 8.30038 23.6159C8.60342 22.5308 9.58215 21.7709 11.0563 21.476C12.4409 21.1991 16.102 20.4283 20.1859 19.254C20.5727 19.1427 20.7963 18.7389 20.685 18.352C20.5737 17.9652 20.1702 17.7414 19.7829 17.8529C16.1427 18.8997 12.8434 19.6215 11.2309 19.953C11.008 18.7532 10.8608 16.1557 13.4116 15.0625C14.3961 14.6406 16.3911 14.2773 18.5033 13.8927L19.2089 13.7639C19.6049 13.6912 19.867 13.3114 19.7943 12.9155C19.7216 12.5194 19.3418 12.2574 18.9458 12.3301L18.2421 12.4586C16.8783 12.7069 15.5617 12.9468 14.4874 13.2095C14.5866 11.5108 15.3061 8.51091 18.8156 6.27054C19.079 6.66397 19.3621 6.98801 19.5871 7.22001C19.7442 7.38193 19.8782 7.50876 19.9953 7.61062C19.9755 7.77643 19.9641 7.94467 19.9641 8.11573C19.9641 10.447 21.8607 12.3436 24.1919 12.3436C25.5619 12.3436 26.7812 11.6881 27.5543 10.6749C28.992 10.9807 30.1816 11.3343 31.1423 11.7475C31.3246 12.0232 31.2996 12.2214 31.2492 12.3797C31.0681 12.947 29.9388 14.5071 23.3794 16.7331C22.9982 16.8624 22.794 17.2764 22.9234 17.6576C23.0264 17.9612 23.3098 18.1525 23.6137 18.1525C23.6913 18.1525 23.7703 18.1399 23.848 18.1136C26.1991 17.3157 28.1064 16.5189 29.5169 15.7454C31.302 14.7664 32.323 13.8104 32.6381 12.8229C32.6614 12.7501 32.6799 12.6774 32.6955 12.6046C33.5917 13.2555 34.1101 14.023 34.2946 14.9342C34.5627 16.259 33.9605 17.7216 32.5049 19.2815C32.2302 19.5758 32.2462 20.0371 32.5405 20.3118C32.6811 20.4429 32.8595 20.5078 33.0377 20.5078C33.2327 20.5078 33.4272 20.4301 33.5708 20.2762C34.1153 19.6928 34.5606 19.1119 34.9075 18.5353C36.653 20.0006 37.5501 21.4686 37.5735 22.9024C37.5995 24.4933 36.549 25.7455 35.7965 26.4362Z" fill="#7D849A"/>
</svg>
